<svg height="604.28198" viewBox="0 0 66.145831 159.88293" width="250" xmlns="http://www.w3.org/2000/svg" xmlns:xlink="http://www.w3.org/1999/xlink"><linearGradient id="a" gradientUnits="userSpaceOnUse" x1="101.47839" x2="101.47839" y1="213.45464" y2="142.24397"><stop offset="0" stop-color="#ade90a"/><stop offset="1" stop-color="#63d18b"/></linearGradient><g transform="matrix(.85071549 0 0 .85071549 -56.25213 -17.297861)"><g fill-rule="evenodd" transform="matrix(.99999529 0 0 .99999529 -.008502 -45.274376)"><g transform="matrix(.8747944 0 0 .8747944 62.44692662126 21.88039602733)"><path d="m38.045498 52.405759c-2.431345-.000003-4.657569 1.972407-4.388857 4.388855l3.538003 31.816509c.268707 2.41645 1.957513 4.38885 4.388852 4.38885h14.685242c2.43136 0 4.16218-1.96811 4.38886-4.38885l2.97938-31.816509c.22669-2.420749-1.95751-4.388855-4.38886-4.388855h-.35788c-.96924 2.416635-3.31022 4.001415-5.91397 4.003616-2.60456-.0015-4.9466-1.58625-5.91613-4.003616z" fill="#fc9559" stroke="#454753" stroke-linecap="round" stroke-linejoin="round" stroke-width="4.839232"/><path d="m38.045498 52.405759c-2.431345-.000003-4.657569 1.972407-4.388857 4.388855l3.538003 31.816509c.268707 2.41645 1.957513 4.38885 4.388852 4.38885h14.685242c2.43136 0 4.16218-1.96811 4.38886-4.38885l2.97938-31.816509c.22669-2.420749-1.95751-4.388855-4.38886-4.388855h-.35788c-.96924 2.416635-3.31022 4.001415-5.91397 4.003616-2.60456-.0015-4.9466-1.58625-5.91613-4.003616z" fill="#fc9559"/><path d="m143.79492 198.06836c-9.18933-.00001-17.60349 7.45486-16.58789 16.58789l.54102 4.87109c.87261-7.71634 8.41875-13.60157 16.58203-13.60156h34.07031c3.66437 9.1365 12.51732 15.12714 22.36133 15.13281 9.84094-.008 18.68829-5.99907 22.35156-15.13281h1.35156c7.12899 0 13.67503 4.48625 15.86133 10.76563l.19141-2.03516c.85678-9.14929-7.39854-16.58789-16.58789-16.58789h-1.35157c-3.66326 9.13374-12.51257 15.12449-22.35351 15.13281-9.84401-.006-18.69501-5.99631-22.35938-15.13281z" fill="#fdbd98" transform="scale(.26458333)"/><circle cx="42.981758" cy="61.347534" fill="#454753" r="1.202713"/><circle cx="54.428566" cy="70.07254" fill="#d1540f" r="2.879167" stroke="#454753" stroke-linecap="round" stroke-linejoin="round" stroke-width="1.209808"/><g fill="#454753"><circle cx="46.117783" cy="70.671524" r=".612125"/><circle cx="41.487572" cy="76.435669" r="1.32083"/><circle cx="55.85067" cy="87.491478" r="1.360656"/></g><circle cx="44.128716" cy="87.081459" fill="#d1540f" r="1.885349" stroke="#454753" stroke-linecap="round" stroke-linejoin="round" stroke-width="1.209808"/><circle cx="39.498505" cy="54.622757" fill="#fdbd98" r="2.173363"/></g><g stroke="#454753" stroke-linecap="round" stroke-linejoin="round"><rect fill="#d8d4ff" fill-opacity=".634518" height="20.651814" ry="7.56" stroke-width="2.116667" width="47.8661" x="81.066948" y="78.122948"/><path d="m87.648064 98.780281h34.703869v10.424994h-34.703869z" fill="#d8d4ff" fill-opacity=".635294" stroke-width="2.116667"/><path d="m348 412.69727c-51.79325 0-93.49023 41.69698-93.49023 93.49023-.89579 101.18539-.45118 205.57576-.45118 308.25391 0 16.94403 13.63996 30.58593 30.58399 30.58593h224.41601c16.94404 0 30.58399-13.6419 30.58399-30.58593.6078-101.34587-.5571-209.37204-.45117-308.25391 0-51.79325-41.69699-93.49023-93.49024-93.49023z" fill="#d8d4ff" fill-opacity=".635294" stroke-width="8" transform="scale(.26458333)"/><path d="m86.009673 140.66023c10.999792-.0719 17.170667 14.17905 27.642647 16.10599 11.82801 2.17646 21.67979-6.94742 21.67962-6.80074l-.0662 56.26031c-.007 5.71279-5.14708 10.31189-11.54054 10.31189h-37.450453c-6.393459 0-11.540539-4.5991-11.540539-10.31189v-55.01683c0-8.22852 7.059907-10.52117 11.275465-10.54873z" fill="url(#a)" stroke-width="2.005"/><path d="m125.74279 143.50074c-1.00529-.0169-2.05842.0614-3.14412.24981-5.1697.89716-7.28103 3.60195-14.47345 4.51917-3.32909.42455-8.10919-1.11717-9.606856-1.64039 2.316396 2.00627 4.574236 4.20015 6.955086 6.05223 2.62457 1.74146 5.76728 3.38733 9.13831 4.23606 10.64254 1.43311 19.47486-5.99491 20.59707-6.86827.0195-.0986.0369-.19763.0481-.29791-.065-3.29194-4.08562-6.15929-9.51419-6.2507z" fill="#68d382" stroke-width="2.004531"/><circle cx="116.79072" cy="131.00021" fill="#65d287" r="4.564063" stroke-width="2.116667"/><circle cx="106.46304" cy="138.4035" fill="#66d285" r="1.77193" stroke-width="1.058333"/></g><rect fill="#fff" fill-opacity=".635294" height="35.852646" ry="5.659432" width="11.318865" x="117.56255" y="167.39275"/><path d="m334.94727 299.26953c-13.68276 0-24.56641 10.89146-24.56641 24.57422v17.5c0-12.39244.64165-23.36098 12.60142-23.36098 7.46351 0 7.9435 8.21663 7.9435 16.55434 0 8.96099 7.21479 16.17578 16.17578 16.17578s16.17383-7.21479 16.17383-16.17578v-2.03516c.22913-8.70382 7.25553-15.64851 15.99609-15.73242h79.44141c13.68276 0 24.57422 10.89146 24.57422 24.57422v-17.5c0-13.68276-10.89146-24.57422-24.57422-24.57422zm28.05468 17.5h.25196v2.48438c-.0223-.84646-.10555-1.67582-.25196-2.48438z" fill="#fff" fill-opacity=".634518" transform="scale(.26458333)"/><circle cx="106.03568" cy="177.04517" fill="#454753" r="1.767229"/><rect fill="#454753" height="13.067476" ry=".926042" width="1.852083" x="128.58273" y="120.12604"/><rect fill="#454753" height="13.067476" ry=".926042" width="1.852083" x="132.2869" y="125.28539"/><rect fill="#454753" height="13.067476" ry=".926042" width="1.852083" x="82.014175" y="181.60989"/><rect fill="#454753" height="5.022664" ry=".926042" width="1.852083" x="82.040764" y="175.45636"/><circle cx="133.16629" cy="141.42352" fill="#454753" r="1.304209"/><circle cx="96.117416" cy="189.37187" fill="#75d76c" r="2.361919" stroke="#454753" stroke-linecap="round" stroke-linejoin="round" stroke-width="1.095383"/><circle cx="109.77489" cy="205.08733" fill="#75d76c" r="2.361919" stroke="#454753" stroke-linecap="round" stroke-linejoin="round" stroke-width="1.095383"/><rect fill="#d4f3bd" fill-opacity=".635294" height="11.918361" ry="3.257752" width="6.515504" x="84.069183" y="198.88812"/><rect fill="#fff" fill-opacity=".635294" height="56.600891" ry="9.488199" width="18.976398" x="73.723824" y="116.40582"/><rect height="5.027083" ry="2.513542" style="fill:#d8d4ff;fill-opacity:.635294;stroke:#454753;stroke-width:2.116667;stroke-linecap:round;stroke-linejoin:round" width="51.064583" x="79.467705" y="223.57812"/></g><g fill="#454753" stroke-width=".225866" transform="scale(.97798316 1.0225125)"><path d="m68.710714 191.66028q-.443299 0-.770956-.30839-.327656-.32765-.327656-.77095v-.0578q0-.4433.327656-.77096.327657-.32766.770956-.32766h8.210679q.443299 0 .770955.32766.327657.32766.327657.77096v.0578q0 .4433-.327657.77095-.327656.30839-.770955.30839h-2.582702q-.154191 0-.154191.17346v10.56209q0 .4433-.327656.77096-.327657.32766-.770956.32766h-.539669q-.4433 0-.770956-.32766-.327656-.32766-.327656-.77096v-10.56209q0-.17346-.154191-.17346z"/><path d="m82.075955 203.49445q-.4433 0-.770956-.32766-.327656-.32766-.327656-.77096v-7.8252q0-.4433.327656-.77095.327656-.32766.770956-.32766h.501121q.443299 0 .770956.32766.327656.32765.327656.77095v7.8252q0 .4433-.327656.77096-.327657.32766-.770956.32766zm0-12.14256q-.4433 0-.770956-.32765-.327656-.32766-.327656-.77096v-.11564q0-.4433.327656-.77096.327656-.32765.770956-.32765h.501121q.443299 0 .770956.32765.327656.32766.327656.77096v.11564q0 .4433-.327656.77096-.327657.32765-.770956.32765z"/><path d="m88.010206 203.49445q-.443299 0-.770956-.32766-.327656-.32766-.327656-.77096v-7.8252q0-.4433.327656-.77095.327657-.32766.770956-.32766h.250561q.462573 0 .770955.32766.327657.30838.346931.77095v.13492q0 .0193.01927.0193.01927 0 .03855-.0193 1.310625-1.42627 3.064549-1.42627 1.753925 0 2.544154 1.00224.809504.98297.809504 3.29584v4.81847q0 .4433-.327656.77096-.327657.32766-.770956.32766h-.327656q-.4433 0-.770956-.32766-.308382-.32766-.308382-.77096v-4.62573q0-1.44554-.385478-1.96594-.366204-.53967-1.329899-.53967-.79023 0-1.464816.67459-.674586.67459-.674586 1.44554v5.01121q0 .4433-.327656.77096-.327656.32766-.770956.32766z"/><path d="m102.72884 203.68718q-2.38997 0-3.681318-1.31062-1.291351-1.3299-1.291351-3.89333 0-2.52488 1.233529-3.85478 1.2528-1.34917 3.5464-1.34917 1.02151 0 1.96593.13492.4433.0578.73241.40475.28911.34693.28911.8095 0 .38548-.30838.61677-.28911.23129-.67459.15419-.75168-.15419-1.67683-.15419-1.21425 0-1.81174.77096-.59749.77095-.59749 2.46705 0 1.73465.63603 2.48634.63604.75168 1.96594.75168.94442 0 1.63828-.17347.36621-.0964.65532.13492.30838.23129.30838.59749 0 .46257-.28911.8095-.26984.34693-.71314.42403-.98296.17346-1.92738.17346z"/><path d="m108.66158 195.72707q-.38548 0-.65531-.26984-.26984-.28911-.26984-.67458 0-.38548.26984-.65532.26983-.26983.65531-.26983h.92515q.17346 0 .17346-.17347v-2.38996q0-.4433.30838-.77095.32766-.32766.77096-.32766h.38548q.4433 0 .77095.32766.32766.32765.32766.77095v2.38996q0 .17347.17346.17347h2.19723q.38548 0 .65531.26983.28911.26984.28911.65532 0 .38547-.28911.67458-.26983.26984-.65531.26984h-2.19723q-.17346 0-.17346.15419v3.89332q0 1.25281.26983 1.61901.26984.36621 1.11789.36621.46257 0 .69386-.0386.38548-.0385.67459.17346.28911.21202.28911.57822 0 .42403-.28911.77096-.26984.32765-.67459.3662-.84805.0771-1.27208.0771-1.86956 0-2.62125-.79022-.75168-.80951-.75168-2.87182v-4.14388q0-.15419-.17346-.15419z"/><path d="m121.44861 203.68718q-1.69611 0-2.46706-.92514-.77096-.94442-.77096-3.18019v-5.01122q0-.4433.32766-.77095.32765-.32766.77095-.32766h.30839q.4433 0 .77095.32766.32766.32765.32766.77095v4.74138q0 1.34917.3662 1.86957.36621.52039 1.23353.52039.79023 0 1.46482-.67458.69386-.67459.69386-1.44554v-5.01122q0-.4433.32765-.77095.32766-.32766.77096-.32766h.38548q.4433 0 .75168.32766.32765.32765.32765.77095v7.8252q0 .4433-.32765.77096-.30838.32766-.75168.32766h-.25056q-.46258 0-.79023-.30839-.30839-.32765-.32766-.79023l-.0193-.13491q0-.0193-.0193-.0193-.0193 0-.0386.0193-1.31062 1.42626-3.06454 1.42626z"/><path d="m130.8118 203.49445q-.4433 0-.77096-.32766-.32765-.32766-.32765-.77096v-7.8252q0-.4433.32765-.77095.32766-.32766.77096-.32766h.38548q.4433 0 .77095.32766.32766.32765.32766.77095v.80951q0 .0193.0193.0193.0386 0 .0386-.0193.55894-.77096 1.46482-1.25281.90587-.50112 1.98521-.61676.40475-.0386.69386.26983.28911.28911.28911.69386 0 .40476-.28911.69386-.28911.28911-.69386.32766-3.41148.26983-3.41148 3.4693v3.43075q0 .4433-.32766.77096-.32765.32766-.77095.32766z"/><path d="m142.7586 195.07175q-.98297 0-1.52264.55895-.52039.53967-.65531 1.75392 0 .15419.15419.15419h3.77768q.1542 0 .1542-.15419-.0771-2.31287-1.90812-2.31287zm.48185 8.61543q-2.52488 0-3.89333-1.31062-1.34917-1.3299-1.34917-3.89333 0-2.54415 1.21425-3.87405 1.21426-1.3299 3.50785-1.3299 4.27881 0 4.39445 4.85702.0193.46258-.32766.77096-.34693.30838-.8095.30838h-5.26177q-.17347 0-.13492.17347.13492 1.29135.84805 1.88884.73241.57821 2.12013.57821.86732 0 1.92739-.2891.34693-.0964.63604.11564.30838.21201.30838.57822 0 .4433-.26983.79023-.25057.32765-.67459.40475-1.07934.23128-2.23577.23128z"/></g></g></svg>